PathFileType	4	(X/Y/Z)	./resultDataOpenSim/trcMotMarkerGrf/sub06/qtm-01-04.trc
DataRate	CameraRate	NumFrames	NumMarkers	Units	OrigDataRate	OrigDataStartFrame	OrigNumFrames
250.000000	250.000000	5	24	m	250.000000	129	515
Frame#	Time	L.Toe.Tip			R.Toe.Tip			L.Ankle.Lat			R.Ankle.Lat			L.Ankle.Med			R.Ankle.Med			L.Heel			R.Heel			L.Knee.Lat			R.Knee.Lat			L.Knee.Med			R.Knee.Med			L.Thigh.Upper			R.Thigh.Upper			L.ASIS			R.ASIS			V.Sacral			L.Acromium			R.Acromium			C7			L.Elbow			R.Elbow			L.Wrist.Lat			R.Wrist.Lat
		X1	Y1	Z1	X2	Y2	Z2	X3	Y3	Z3	X4	Y4	Z4	X5	Y5	Z5	X6	Y6	Z6	X7	Y7	Z7	X8	Y8	Z8	X9	Y9	Z9	X10	Y10	Z10	X11	Y11	Z11	X12	Y12	Z12	X13	Y13	Z13	X14	Y14	Z14	X15	Y15	Z15	X16	Y16	Z16	X17	Y17	Z17	X18	Y18	Z18	X19	Y19	Z19	X20	Y20	Z20	X21	Y21	Z21	X22	Y22	Z22	X23	Y23	Z23	X24	Y24	Z24

129	0.512	-0.16289156	0.13335322	-0.057898454	-0.82186919	0.034577832	0.097929828	-0.29117038	0.10992834	-0.077316895	-0.95116505	0.070966953	0.12241316	-0.29394308	0.12599733	0.0070371344	-0.92992031	0.090418843	0.03648428	-0.33669973	0.049713272	-0.026682803	-1.0100643	0.056161305	0.059586622	-0.442241	0.44490748	-0.073391998	-0.77975583	0.42203121	0.16209416	-0.4537303	0.43309045	0.052053827	-0.80403373	0.42532844	0.031112604	-0.62483773	0.78700685	-0.11892901	-0.69458732	0.77414629	0.22314843	-0.56474722	0.83064859	-0.061735167	-0.58745016	0.82480059	0.18731293	-0.76057469	0.90518048	0.0468696	-0.65781378	1.3098598	-0.1231487	-0.62652619	1.304122	0.23794045	-0.7171586	1.3461475	0.062323359	-0.76038505	1.0101728	-0.17025918	-0.64451585	0.98833052	0.33479292	-0.64570268	0.79533582	-0.20702446	-0.41485167	0.89302157	0.29986085
130	0.516	-0.15094258	0.13751256	-0.057427699	-0.82178976	0.034565933	0.097944309	-0.27895481	0.11170726	-0.076300602	-0.95074479	0.071764248	0.12233138	-0.28192739	0.12778468	0.0078860755	-0.92918529	0.091012875	0.036453803	-0.32305974	0.050656724	-0.024964518	-1.0096739	0.057445741	0.059413218	-0.43529462	0.4439871	-0.072801988	-0.77600882	0.42142803	0.16207281	-0.44676807	0.43235461	0.052709833	-0.79991179	0.4246404	0.031022046	-0.61798124	0.78524089	-0.11889505	-0.68895086	0.77266652	0.22261289	-0.55791824	0.82885141	-0.061536497	-0.58166343	0.82323102	0.18741778	-0.75458862	0.90373818	0.046360927	-0.65177978	1.3082445	-0.12340126	-0.62064445	1.3025522	0.23779245	-0.71119035	1.3446624	0.062047173	-0.75482231	1.008693	-0.16978759	-0.63722986	0.98670249	0.33488166	-0.64135215	0.79343426	-0.20726834	-0.40736471	0.8924279	0.29935143
131	0.52	-0.13937907	0.14140477	-0.057063215	-0.82171176	0.034556664	0.097960945	-0.26708772	0.11334145	-0.075206199	-0.95028782	0.072627054	0.12227418	-0.27014842	0.12960588	0.0088162912	-0.92838759	0.091669131	0.036435887	-0.30986401	0.051612878	-0.02298601	-1.0092194	0.058816543	0.059231138	-0.42829367	0.44304856	-0.072270531	-0.77211334	0.42087185	0.16208628	-0.43973218	0.4315667	0.053307056	-0.79572721	0.42395378	0.030931017	-0.61102656	0.78349884	-0.11885887	-0.68346805	0.77135404	0.22225943	-0.55103743	0.82711493	-0.061310616	-0.57585127	0.82169619	0.18753045	-0.74838727	0.90228775	0.045842019	-0.64583047	1.3066539	-0.12370024	-0.6147297	1.3009982	0.23762851	-0.70522634	1.3432527	0.061710455	-0.74924761	1.0072359	-0.16928667	-0.6300068	0.98509581	0.33494959	-0.63686855	0.79151838	-0.20743382	-0.3999217	0.89178458	0.29882034
132	0.524	-0.1281974	0.14496956	-0.056789478	-0.82163491	0.034549494	0.097980903	-0.25554666	0.11479765	-0.074042031	-0.94980251	0.073548394	0.12225528	-0.25861486	0.13142936	0.0098242374	-0.9275162	0.092387651	0.036422371	-0.2971185	0.052596253	-0.02086549	-1.0087378	0.060280505	0.059114516	-0.4212197	0.44209901	-0.071789157	-0.76820541	0.4203228	0.1620871	-0.43260952	0.43073419	0.053852915	-0.7914896	0.42327663	0.030842485	-0.60399283	0.78180261	-0.11882955	-0.67803265	0.77011235	0.22196175	-0.54410357	0.82543305	-0.061055365	-0.57002035	0.82020016	0.18764874	-0.74201817	0.90088758	0.045222152	-0.6398668	1.3050873	-0.12403693	-0.60877491	1.2994675	0.23744065	-0.69925742	1.3418985	0.061326308	-0.7436137	1.0058095	-0.16878516	-0.62283774	0.98351905	0.33498853	-0.63224311	0.7895821	-0.20750779	-0.39252021	0.8910979	0.29826691
133	0.528	-0.11737926	0.1481661	-0.056560885	-0.82155524	0.034544264	0.098003933	-0.24432145	0.11607361	-0.072821886	-0.94929594	0.074523778	0.12228004	-0.24734288	0.13319748	0.01089371	-0.92659588	0.093162062	0.036429599	-0.28479053	0.05356927	-0.018798698	-1.0083094	0.061844001	0.059180143	-0.41406306	0.44114953	-0.071347646	-0.76438775	0.41974675	0.1620483	-0.42540213	0.42987269	0.054357853	-0.78719566	0.42260688	0.030754097	-0.59689575	0.78018169	-0.1188202	-0.67257235	0.76887476	0.22164186	-0.53711632	0.82380556	-0.060774828	-0.56417178	0.81874563	0.18777329	-0.73564224	0.89955915	0.044510342	-0.63381611	1.303549	-0.12439708	-0.6027832	1.2979674	0.23722786	-0.6932355	1.3405326	0.060937038	-0.73779894	1.0043848	-0.16832811	-0.61569258	0.98197593	0.33498846	-0.62756314	0.78765013	-0.20754806	-0.38516838	0.89037637	0.29769587
